<svg width="17" height="17" viewBox="0 0 17 17" fill="none" xmlns="http://www.w3.org/2000/svg">
<path d="M16.1245 13.8745C16.5933 14.3745 16.5933 15.1557 16.1245 15.6557C15.6245 16.1245 14.8433 16.1245 14.3433 15.6557L10.6245 11.9057C9.34335 12.7495 7.78074 13.187 6.09334 12.9683C3.21834 12.562 0.905795 10.2183 0.530795 7.37455C-0.000455085 3.12455 3.59334 -0.469204 7.84334 0.0620455C10.687 0.437046 13.0307 2.74955 13.437 5.62455C13.6557 7.31205 13.2183 8.87455 12.3745 10.1245L16.1245 13.8745ZM2.96834 6.49955C2.96834 8.71835 4.74954 10.4995 6.96834 10.4995C9.15574 10.4995 10.9683 8.71835 10.9683 6.49955C10.9683 4.31205 9.15574 2.49955 6.96834 2.49955C4.74954 2.49955 2.96834 4.31205 2.96834 6.49955Z" fill="#434343"/>
</svg>
